<?xml version="1.0" encoding="utf-8"?>
<!-- Svg Vector Icons : http://www.onlinewebfonts.com/icon -->
<!DOCTYPE svg PUBLIC "-//W3C//DTD SVG 1.1//EN" "http://www.w3.org/Graphics/SVG/1.1/DTD/svg11.dtd">
<svg version="1.1" xmlns="http://www.w3.org/2000/svg" xmlns:xlink="http://www.w3.org/1999/xlink" x="0px" y="0px" viewBox="0 0 256 256" enable-background="new 0 0 256 256" xml:space="preserve">
<metadata> Svg Vector Icons : http://www.onlinewebfonts.com/icon </metadata>
<g><g><g><path fill="#000000" d="M32.8,10.5c-5.2,1.7-9.2,5.2-11.5,10l-1.4,3v104.6v104.6l1.4,3c1.8,3.8,5.1,7.2,9,9l3,1.4h53.3h53.3l3-1.5c3.8-1.9,7-5.1,8.9-8.9l1.5-3l0.1-56.2l0.1-56.2h40.2h40.2l1.1-1.2c1.6-1.5,1.6-4,0-5.5l-1.1-1.2h-40.2h-40.2l-0.1-44.5l-0.1-44.4l-1.5-3c-1.9-3.9-5.1-7.2-8.9-9l-3-1.4L87.3,10C45.6,10,34.3,10.1,32.8,10.5z M139.4,18.2c2.4,0.6,5.1,3.4,5.7,5.7c0.3,1,0.5,3.6,0.5,5.6v3.8H86.6H27.5v-3.8c0-4.8,0.6-6.9,2.4-8.9c2.8-3,0-2.9,56.4-3C122.3,17.7,138.1,17.9,139.4,18.2z M145.6,77v35.3H119H92.3l20.4-20.5c11.2-11.2,20.6-21,20.9-21.7c1-2.8-1.7-5.9-4.5-5.2c-0.8,0.2-9.9,8.9-25.8,24.8c-24.3,24.2-24.6,24.6-24.6,26.4c0,1.8,0.4,2.2,24.1,26c13.6,13.7,24.7,24.5,25.6,24.8c3,1.3,6.3-1.7,5.2-4.8c-0.2-0.7-9.6-10.4-20.9-21.7l-20.4-20.4H119h26.6v35.3v35.3H86.6H27.5v-74.6V41.7h59.1h59.1L145.6,77L145.6,77z M145.6,214.7c0,10-0.2,16.3-0.5,17.5c-0.6,2.4-3.4,5.1-5.7,5.7c-2.6,0.7-103.1,0.7-105.7,0c-2.4-0.6-5.1-3.4-5.7-5.7c-0.3-1.2-0.5-7.5-0.5-17.5v-15.6h59.1h59.1L145.6,214.7L145.6,214.7z"/><path fill="#000000" d="M68.9,22.2c-2.6,1.4-3,4.2-0.9,6.2l1.3,1.3h9.2c8.5,0,9.3-0.1,10.4-0.9c2.3-1.8,1.9-5.4-0.6-6.7C86.5,21.1,70.7,21.1,68.9,22.2z"/><path fill="#000000" d="M96.9,21.9c-1.4,0.6-2.5,2.3-2.5,4c0,1.1,0.4,1.8,1.4,2.7c1.2,1,1.8,1.2,4.5,1.2c2.4,0,3.4-0.2,4.3-0.9c2.3-1.8,1.9-5.4-0.6-6.7C102.7,21.4,98.5,21.2,96.9,21.9z"/><path fill="#000000" d="M82.4,203.5c-2.6,0.9-6.6,3.6-8,5.5c-2.6,3.5-3.3,5.4-3.3,9.6c0,3.4,0.2,4.3,1.3,6.6c3.6,7.4,12.1,10.9,19.6,8.1c3.2-1.2,7.2-5,8.9-8.4c1.7-3.5,1.6-8.7-0.1-12.3C97.2,205.3,89.1,201.4,82.4,203.5z M89.4,211.2c4.6,1.5,6.4,6.8,4,11.5c-1.3,2.6-3.4,3.7-6.8,3.7c-3.4,0-5.5-1.1-6.8-3.7C76.2,215.7,82,208.7,89.4,211.2z"/></g></g></g>
</svg>